<svg id="_x33_0" enable-background="new 0 0 64 64" height="512" viewBox="0 0 64 64" width="512" xmlns="http://www.w3.org/2000/svg"><g><path d="m53.826 45.76c.083-.297.141-.561.21-.838 2.437-.313 4.599-1.703 5.881-3.839l.086-.144c.652-1.087.997-2.333.997-3.601v-.338c0-1.656-.581-3.178-1.546-4.378l2.395-3.592c.753-1.13 1.151-2.445 1.151-3.803 0-1.681-.615-3.299-1.732-4.555-1.276-1.435-2.635-2.77-4.059-4.023l-.065-.179c-2.127-5.849-6.587-10.698-12.238-13.307-3.067-1.415-6.472-2.163-9.848-2.163h-6.116c-3.375 0-6.781.748-9.848 2.163-5.651 2.608-10.111 7.458-12.238 13.307l-.065.179c-1.423 1.253-2.783 2.588-4.059 4.023-1.117 1.256-1.732 2.874-1.732 4.555 0 1.358.398 2.674 1.151 3.804l2.395 3.592c-.965 1.199-1.546 2.721-1.546 4.377v.338c0 1.269.345 2.514.997 3.6l.088.147c1.289 2.149 3.466 3.539 5.919 3.842.061.246.113.479.185.742-.631 2.982.363 6.85 2.629 10.172 3.206 4.7 8.085 7.115 11.561 5.796 2.387.905 4.866 1.363 7.375 1.363h.008.24c2.574 0 5.119-.466 7.571-1.385 3.481 1.364 8.38-1.04 11.609-5.774 2.237-3.281 3.236-7.113 2.644-10.081zm5.174-8.422c0 .906-.247 1.796-.713 2.574l-.086.144c-.84 1.4-2.187 2.371-3.733 2.755.002-.011.005-.024.006-.035l.055-.387c.318-2.236.479-4.517.478-6.777l-.002-3.51c2.277.466 3.995 2.485 3.995 4.898zm-54.773-15.338c4.231-4.761 9.328-8.485 15.174-11.084l-.838-1.816c-2.938 1.306-5.696 2.896-8.264 4.745 2.21-3.848 5.578-6.993 9.633-8.865 2.806-1.295 5.922-1.98 9.01-1.98h6.116c3.088 0 6.204.685 9.01 1.979 4.057 1.872 7.424 5.018 9.635 8.867-2.575-1.853-5.344-3.448-8.302-4.763l-.776 1.844c5.82 2.587 10.917 6.312 15.148 11.072.791.892 1.227 2.037 1.227 3.228 0 .693-.152 1.369-.433 1.993-.545-1.75-1.591-3.319-3.066-4.5l-1.876-1.501-1.249 1.563 1.876 1.5c1.673 1.34 2.653 3.31 2.733 5.44l-1.014 1.521c-.875-.605-1.894-1.011-2.994-1.165-.278-4.558-3.928-8.218-8.549-8.439l-3.957-.188c-5.814-.278-11.492-2.021-16.471-5.025v-9.426h-2v9.226c-5.674 1.41-10.571 4.828-13.824 9.707-.769 1.154-1.176 2.497-1.176 3.883v.263c-1.091.157-2.102.561-2.97 1.162l-1.014-1.521c.08-2.129 1.06-4.1 2.732-5.439l1.876-1.501-1.249-1.563-1.877 1.502c-1.474 1.18-2.52 2.749-3.065 4.499-.281-.622-.433-1.298-.433-1.991 0-1.191.436-2.336 1.227-3.227zm1.573 18.058-.088-.148c-.465-.776-.712-1.666-.712-2.572v-.338c0-2.414 1.721-4.434 4-4.899v3.147c0 2.528.194 5.074.576 7.573-1.564-.376-2.927-1.35-3.776-2.763zm46.748 2.049-.055.387c-.128.899-.337 1.839-.659 2.957l-.072.251.06.255c.583 2.472-.295 5.827-2.293 8.757-2.754 4.04-6.923 6.2-9.485 4.925l-.4-.199-.415.164c-2.337.926-4.769 1.396-7.229 1.396h-.239c-.002 0-.004 0-.007 0-2.39 0-4.752-.462-7.021-1.371l-.411-.165-.398.192c-2.564 1.242-6.718-.929-9.455-4.942-2.023-2.966-2.896-6.349-2.28-8.828l.064-.258-.072-.256c-.285-1.004-.474-1.844-.597-2.642l-.028-.181c-.368-2.406-.556-4.862-.556-7.301v-5.432c0-.99.291-1.949.84-2.773 3.041-4.562 7.646-7.744 12.982-8.978 5.295 3.228 11.355 5.087 17.554 5.383l3.957.188c3.739.178 6.669 3.249 6.671 6.992l.002 4.985c.002 2.165-.152 4.351-.458 6.494z"/><path d="m57.8 52.6-1.6-1.2-3.45 4.6 3.45 4.6 1.6-1.2-1.8-2.4h7v-2h-7z"/><path d="m6.2 52.6 1.8 2.4h-7v2h7l-1.8 2.4 1.6 1.2 3.45-4.6-3.45-4.6z"/><path d="m35 37.05v-5.05h-2v5.05c0 1.524.594 2.958 1.672 4.036.208.209.328.498.328.793 0 .618-.503 1.121-1.121 1.121-.3 0-.581-.116-.793-.328l-1.086-1.086-1.086 1.086c-.212.212-.493.328-.793.328-.618 0-1.121-.503-1.121-1.121 0-.295.12-.584.328-.793 1.078-1.078 1.672-2.512 1.672-4.036v-5.05h-2v5.05c0 .99-.386 1.922-1.086 2.622-.581.581-.914 1.385-.914 2.207 0 1.721 1.4 3.121 3.121 3.121.687 0 1.34-.221 1.879-.628.539.407 1.192.628 1.879.628 1.721 0 3.121-1.4 3.121-3.121 0-.822-.333-1.626-.914-2.207-.7-.7-1.086-1.632-1.086-2.622z"/><path d="m16.059 29.496c2.937-1.957 6.946-1.957 9.883 0l.504.336 1.109-1.664-.504-.336c-3.596-2.396-8.506-2.396-12.102 0l-.504.336 1.109 1.664z"/><path d="m21.171 34h-.343c-1.557 0-3.021-.606-4.122-1.707l-1.414 1.414c1.48 1.479 3.446 2.293 5.537 2.293h.343c2.091 0 4.057-.814 5.536-2.293l-1.414-1.414c-1.102 1.101-2.566 1.707-4.123 1.707z"/><path d="m36.949 27.832-.504.336 1.109 1.664.504-.336c2.937-1.957 6.946-1.957 9.883 0l.504.336 1.109-1.664-.504-.336c-3.595-2.396-8.505-2.396-12.101 0z"/><path d="m43.171 34h-.343c-1.557 0-3.021-.606-4.122-1.707l-1.414 1.414c1.48 1.479 3.446 2.293 5.537 2.293h.343c2.091 0 4.057-.814 5.536-2.293l-1.414-1.414c-1.102 1.101-2.566 1.707-4.123 1.707z"/><path d="m28 51h8v2h-8z"/><path d="m10.83 21.563c2.463-3.08 5.744-5.367 9.486-6.615l-.633-1.896c-4.109 1.369-7.71 3.881-10.464 7.323l.781.625z"/><path d="m49.848 19.988.304-1.977-4.16-.64c-5.763-.887-11.33-2.659-16.545-5.267l-.895 1.789c5.402 2.701 11.167 4.536 17.136 5.454z"/><path d="m31.729 10.786c2.96-1.185 6.08-1.786 9.271-1.786v-2c-3.447 0-6.816.649-10.013 1.929l-.357.143.741 1.857z"/></g></svg>